<?xml version="1.0" encoding="UTF-8" standalone="no"?>
<svg
   version="1.1"
   x="0px"
   y="0px"
   viewBox="0 0 100 100"
   enable-background="new 0 0 100 100"
   xml:space="preserve"
   id="svg4"
   sodipodi:docname="Delete.svg"
   inkscape:version="1.2.1 (9c6d41e410, 2022-07-14)"
   xmlns:inkscape="http://www.inkscape.org/namespaces/inkscape"
   xmlns:sodipodi="http://sodipodi.sourceforge.net/DTD/sodipodi-0.dtd"
   xmlns="http://www.w3.org/2000/svg"
   xmlns:svg="http://www.w3.org/2000/svg"><defs
     id="defs8" /><sodipodi:namedview
     id="namedview6"
     pagecolor="#ffffff"
     bordercolor="#000000"
     borderopacity="0.25"
     inkscape:showpageshadow="2"
     inkscape:pageopacity="0.0"
     inkscape:pagecheckerboard="0"
     inkscape:deskcolor="#d1d1d1"
     showgrid="false"
     inkscape:zoom="17.8"
     inkscape:cx="50"
     inkscape:cy="50.08427"
     inkscape:window-width="1920"
     inkscape:window-height="1001"
     inkscape:window-x="-9"
     inkscape:window-y="-9"
     inkscape:window-maximized="1"
     inkscape:current-layer="svg4" /><path
     d="M50,34.1L24.1,8.3c-4.3-4.5-11.5-4.5-15.8,0c-4.5,4.4-4.5,11.5-0.1,15.9l25.8,25.9L8.3,75.8c-4.4,4.4-4.4,11.6,0.1,15.9  c4.3,4.4,11.5,4.4,15.9,0l25.7-25.8l25.9,25.8c4.4,4.4,11.5,4.4,15.9,0c4.4-4.4,4.4-11.6-0.1-15.9L65.9,50.1l25.8-25.9  c4.5-4.5,4.4-11.5,0.1-15.9c-4.5-4.4-11.6-4.5-15.9,0L50,34.1z"
     id="path2"
     style="fill:#800000" /></svg>
