<svg xmlns="http://www.w3.org/2000/svg" viewBox="0 0 100 100" xmlns:v="https://vecta.io/nano"><path d="M4.039 11.69c-.186-4.37 3.527-6.973 10.024-8.275s15.779-1.301 21.719.559 8.539 5.579 13.272 6.787 11.602-.094 17.077-2.418 9.559-5.671 14.201-4.462 9.839 6.973 11.509 12.365-.186 10.412-.279 16.27 1.578 12.551 3.434 20.453 3.898 17.013 1.206 23.706-10.117 10.969-19.769 14.502-21.532 6.322-27.844 6.323-7.054-2.788-13.179-4.369-17.634-1.953-23.296-7.717-5.477-16.92-6.646-25.966-3.695-15.985-2.767-20.82 5.309-7.566 5.458-11.999S4.225 16.061 4.039 11.69z" fill="navy"/><circle cx="50" cy="45" r="30" fill="#f6f688"/><g fill="navy"><path d="M58.466 18.837c-6.553 4.095-17.569 12.776-20.132 23.67s3.324 23.997 7.123 30.631 5.508 6.797 11.965 5.159 17.663-5.078 22.885-13.759 4.463-22.604 1.615-31.613-7.786-13.104-11.3-15.398-5.603-2.785-12.156 1.31z"/><path d="M65.848 29.157c-1.311 0-2.621 1.146-2.293 2.539s2.294 3.031 3.603 3.031 1.965-1.638 1.638-3.03-1.637-2.539-2.948-2.539z"/></g><path d="M73.71 39.312l-5.241-2.508-5.037 2.895.766-5.759-4.31-3.896 5.714-1.051 2.373-5.303 2.766 5.11 5.777.618-4.005 4.209zM53.563 51.106l-4.378-.023-2.501 3.594-1.331-4.171-4.19-1.268 3.555-2.555-.089-4.377 3.529 2.592 4.135-1.437-1.374 4.157zm18.718 20.147l-4.174-5.346-6.591.554 3.588-5.79-2.542-6.363 6.391 1.767 5.02-4.486.363 6.883 5.644 3.591-6.167 2.486z" fill="#ff0"/></svg>