<svg xmlns="http://www.w3.org/2000/svg" viewBox="0 0 100 100" xmlns:v="https://vecta.io/nano"><path d="M4.039 11.69c-.186-4.37 3.527-6.973 10.024-8.275s15.779-1.301 21.719.559 8.539 5.579 13.272 6.787 11.602-.094 17.077-2.418 9.559-5.671 14.201-4.462 9.839 6.973 11.509 12.365-.186 10.412-.279 16.27 1.578 12.551 3.434 20.453 3.898 17.013 1.206 23.706-10.117 10.969-19.769 14.502-21.532 6.322-27.844 6.323-7.054-2.788-13.179-4.369-17.634-1.953-23.296-7.717-5.477-16.92-6.646-25.966-3.695-15.985-2.767-20.82 5.309-7.566 5.458-11.999S4.225 16.061 4.039 11.69z" fill="#0ff"/><circle cx="50" cy="45" r="30" fill="#ffff05"/></svg>